<?xml version="1.0" encoding="UTF-8"?>
<!DOCTYPE svg PUBLIC "-//W3C//DTD SVG 1.1//EN" "http://www.w3.org/Graphics/SVG/1.1/DTD/svg11.dtd">
<svg xmlns="http://www.w3.org/2000/svg" version="1.1" width="500px" height="500px" style="shape-rendering:geometricPrecision; text-rendering:geometricPrecision; image-rendering:optimizeQuality; fill-rule:evenodd; clip-rule:evenodd" xmlns:xlink="http://www.w3.org/1999/xlink">
<g><path style="opacity:0.333" fill="#f6e8c1" d="M 324.5,138.5 C 322.784,138.371 321.117,138.038 319.5,137.5C 319.167,137.5 318.833,137.5 318.5,137.5C 317.486,136.326 316.153,135.66 314.5,135.5C 309.889,134.515 305.222,133.848 300.5,133.5C 298.485,132.076 296.152,131.41 293.5,131.5C 283.5,131.5 273.5,131.5 263.5,131.5C 260.302,130.964 257.635,131.631 255.5,133.5C 254.167,133.5 252.833,133.5 251.5,133.5C 248.833,133.833 246.167,134.167 243.5,134.5C 258.227,128.957 273.561,127.124 289.5,129C 296.571,130.012 303.571,131.345 310.5,133C 315.581,134.05 320.248,135.884 324.5,138.5 Z"/></g>
<g><path style="opacity:0.941" fill="#ecd283" d="M 263.5,131.5 C 261.095,132.768 258.428,133.435 255.5,133.5C 257.635,131.631 260.302,130.964 263.5,131.5 Z"/></g>
<g><path style="opacity:0.741" fill="#ecd282" d="M 293.5,131.5 C 296.152,131.41 298.485,132.076 300.5,133.5C 297.848,133.59 295.515,132.924 293.5,131.5 Z"/></g>
<g><path style="opacity:0.8" fill="#ecd181" d="M 251.5,133.5 C 249.22,135.223 246.553,135.889 243.5,135.5C 243.5,135.167 243.5,134.833 243.5,134.5C 246.167,134.167 248.833,133.833 251.5,133.5 Z"/></g>
<g><path style="opacity:1" fill="#e9bf29" d="M 376.5,221.5 C 376.758,226.717 376.425,231.884 375.5,237C 376.851,240.712 377.518,244.546 377.5,248.5C 376.481,253.028 376.481,257.528 377.5,262C 377.104,271.422 374.77,280.256 370.5,288.5C 366.121,293.21 361.454,297.71 356.5,302C 352.204,303.815 348.204,306.148 344.5,309C 329.03,313.243 313.53,317.409 298,321.5C 280.432,323.284 262.932,321.118 245.5,315C 226.881,307.382 214.048,294.216 207,275.5C 205.981,274.313 204.814,273.313 203.5,272.5C 202.571,271.311 202.238,269.978 202.5,268.5C 199.386,267.909 196.886,266.242 195,263.5C 193.667,261.5 192.333,259.5 191,257.5C 190.316,256.216 190.483,255.049 191.5,254C 190.244,253.583 189.577,252.75 189.5,251.5C 192.308,251.693 194.975,252.36 197.5,253.5C 197.833,253.5 198.167,253.5 198.5,253.5C 206.123,268.072 214.29,282.406 223,296.5C 231.634,305.906 242.134,312.406 254.5,316C 271.325,318.817 288.158,318.65 305,315.5C 305.772,315.645 306.439,315.978 307,316.5C 318.896,313.234 330.729,309.734 342.5,306C 367.703,294.425 378.37,274.925 374.5,247.5C 374.035,239.267 373.368,231.1 372.5,223C 370.444,209.106 367.277,195.273 363,181.5C 360.977,178.48 358.31,176.146 355,174.5C 353.991,172.975 353.491,171.308 353.5,169.5C 349.677,168.574 347.01,166.241 345.5,162.5C 316.994,140.582 284.994,133.749 249.5,142C 237.43,146.198 226.43,152.198 216.5,160C 211.84,163.813 208.173,168.313 205.5,173.5C 203.171,174.333 201.671,176 201,178.5C 200.676,176.431 199.842,176.098 198.5,177.5C 196.73,181.38 194.73,185.046 192.5,188.5C 192.5,186.833 192.5,185.167 192.5,183.5C 194.201,177.771 197.201,172.771 201.5,168.5C 209.212,161.782 216.878,155.115 224.5,148.5C 257.172,131.35 290.505,129.85 324.5,144C 338.707,151.348 350.874,161.181 361,173.5C 363.298,178.48 365.631,183.48 368,188.5C 371.425,199.498 374.258,210.498 376.5,221.5 Z"/></g>
<g><path style="opacity:0.843" fill="#ebd07d" d="M 314.5,135.5 C 316.153,135.66 317.486,136.326 318.5,137.5C 316.517,137.843 315.183,137.176 314.5,135.5 Z"/></g>
<g><path style="opacity:0.173" fill="#f6e9c7" d="M 243.5,134.5 C 243.5,134.833 243.5,135.167 243.5,135.5C 235.195,137.817 227.195,140.983 219.5,145C 215.654,147.055 212.32,149.555 209.5,152.5C 209.167,152.5 208.833,152.5 208.5,152.5C 206.147,153.34 204.147,154.674 202.5,156.5C 201.609,157.11 200.609,157.443 199.5,157.5C 212.084,146.204 226.751,138.538 243.5,134.5 Z"/></g>
<g><path style="opacity:0.729" fill="#edd281" d="M 319.5,137.5 C 321.117,138.038 322.784,138.371 324.5,138.5C 324.833,139.167 325.167,139.833 325.5,140.5C 323.033,140.245 321.033,139.245 319.5,137.5 Z"/></g>
<g><path style="opacity:0.239" fill="#f8eccd" d="M 324.5,138.5 C 341.935,145.392 356.268,156.392 367.5,171.5C 363.083,167.586 358.749,163.419 354.5,159C 349.507,155.842 344.841,152.342 340.5,148.5C 337.706,146.6 334.706,144.933 331.5,143.5C 329.819,141.992 327.819,140.992 325.5,140.5C 325.167,139.833 324.833,139.167 324.5,138.5 Z"/></g>
<g><path style="opacity:1" fill="#f7d133" d="M 357.5,287.5 C 357.167,287.5 356.833,287.5 356.5,287.5C 354.508,287.328 352.842,287.995 351.5,289.5C 350.702,289.043 350.369,288.376 350.5,287.5C 354.803,284.029 358.636,280.029 362,275.5C 365.156,264.702 364.656,254.036 360.5,243.5C 360.608,242.558 360.941,241.725 361.5,241C 359.939,240.682 358.772,239.849 358,238.5C 357.985,233.482 357.152,228.649 355.5,224C 356.279,217.437 356.612,210.437 356.5,203C 353.875,200.804 352.875,197.97 353.5,194.5C 352.325,194.719 351.325,194.386 350.5,193.5C 345.315,170.314 330.982,155.647 307.5,149.5C 306.914,149.709 306.414,150.043 306,150.5C 302.861,149.199 300.195,147.199 298,144.5C 289.311,144.418 280.478,144.584 271.5,145C 266.25,146.174 260.916,146.841 255.5,147C 250.286,148.605 245.286,150.772 240.5,153.5C 239.147,154.524 238.48,155.857 238.5,157.5C 234.054,157.985 230.054,159.652 226.5,162.5C 221.51,168.46 216.51,174.46 211.5,180.5C 211.977,181.478 212.643,182.311 213.5,183C 212.422,183.674 211.755,184.674 211.5,186C 210.817,191.996 210.15,197.662 209.5,203C 211.365,208.13 213.032,213.297 214.5,218.5C 213.998,219.716 213.665,220.883 213.5,222C 214.094,222.464 214.761,222.631 215.5,222.5C 215.916,226.266 216.25,229.932 216.5,233.5C 216.5,233.833 216.5,234.167 216.5,234.5C 215.883,234.611 215.383,234.944 215,235.5C 214.667,240.167 214.333,244.833 214,249.5C 212.899,247.606 211.566,246.939 210,247.5C 208.821,249.636 208.321,251.636 208.5,253.5C 207.833,253.167 207.167,252.833 206.5,252.5C 206.299,249.272 206.633,246.105 207.5,243C 203.867,237.312 201.367,231.145 200,224.5C 198.829,223.107 197.329,222.273 195.5,222C 198.167,221.333 198.167,220.667 195.5,220C 197.506,216.374 198.506,212.374 198.5,208C 196.651,200.196 198.151,192.363 203,184.5C 204.067,183.809 205.234,183.309 206.5,183C 206.167,182.667 205.833,182.333 205.5,182C 208.396,177.029 211.396,172.196 214.5,167.5C 218.2,162.806 222.867,159.306 228.5,157C 242.858,146.452 259.691,141.286 279,141.5C 294.209,141.608 308.709,144.774 322.5,151C 327.258,154.43 332.258,157.43 337.5,160C 339.467,162.436 341.134,164.936 342.5,167.5C 344.484,167.383 346.15,168.05 347.5,169.5C 352.72,178.314 356.887,187.648 360,197.5C 360.604,205.085 361.771,212.585 363.5,220C 363.355,221.226 363.022,222.393 362.5,223.5C 363.262,227.111 363.762,230.778 364,234.5C 364.837,241.849 366.67,249.182 369.5,256.5C 369.011,265.886 366.511,274.886 362,283.5C 360.629,285.041 359.129,286.375 357.5,287.5 Z"/></g>
<g><path style="opacity:1" fill="#e6c14f" d="M 331.5,143.5 C 334.706,144.933 337.706,146.6 340.5,148.5C 336.498,148.471 333.498,146.805 331.5,143.5 Z"/></g>
<g><path style="opacity:1" fill="#fcdc40" d="M 349.5,281.5 C 348.292,282.234 346.959,282.567 345.5,282.5C 346.011,279.972 346.678,277.472 347.5,275C 347.036,270.541 346.87,266.041 347,261.5C 345.333,258.167 343.667,254.833 342,251.5C 337.722,248.106 335.556,243.939 335.5,239C 334.692,238.692 334.025,238.192 333.5,237.5C 336.461,226.74 338.461,215.74 339.5,204.5C 338.885,185.274 329.885,170.108 312.5,159C 306.965,156.766 301.465,154.599 296,152.5C 295.586,152.957 295.086,153.291 294.5,153.5C 289.553,152.717 284.553,152.217 279.5,152C 278.584,151.626 277.75,151.126 277,150.5C 271.61,151.066 266.443,152.4 261.5,154.5C 259.257,153.617 257.59,154.451 256.5,157C 251.038,159.638 245.705,162.471 240.5,165.5C 236.436,170.388 232.603,175.388 229,180.5C 228.867,183.525 227.867,186.192 226,188.5C 225.717,193.592 224.55,198.426 222.5,203C 223.268,207.19 224.268,211.356 225.5,215.5C 223.908,217.225 224.242,218.225 226.5,218.5C 226.5,218.833 226.5,219.167 226.5,219.5C 225.564,220.974 224.23,221.974 222.5,222.5C 219.737,225.689 217.737,229.356 216.5,233.5C 216.25,229.932 215.916,226.266 215.5,222.5C 215.642,220.607 215.976,218.44 216.5,216C 215.177,211.775 214.177,207.441 213.5,203C 214.308,201.294 215.641,200.461 217.5,200.5C 217.335,196.818 217.501,193.152 218,189.5C 226.564,171.77 240.064,159.436 258.5,152.5C 259.386,151.675 259.719,150.675 259.5,149.5C 263.527,149.051 267.527,148.384 271.5,147.5C 277.947,147.517 284.447,147.517 291,147.5C 293.077,148.017 295.077,148.684 297,149.5C 297.333,149.167 297.667,148.833 298,148.5C 298.49,149.793 298.657,151.127 298.5,152.5C 301.146,152.892 303.646,152.892 306,152.5C 310.067,155.785 314.234,158.952 318.5,162C 320.441,162.304 322.107,163.137 323.5,164.5C 325.214,163.391 325.881,164.058 325.5,166.5C 332.162,168.834 336.495,173.5 338.5,180.5C 339.376,181.251 340.376,181.751 341.5,182C 340.982,186.098 342.315,189.765 345.5,193C 345.318,195.653 344.985,198.32 344.5,201C 345,201.5 345.5,202 346,202.5C 346.32,208.816 346.487,214.983 346.5,221C 343.361,227.484 344.028,233.484 348.5,239C 348.167,239.333 347.833,239.667 347.5,240C 350.217,240.043 350.884,241.043 349.5,243C 351.397,248.729 354.397,253.729 358.5,258C 358.596,261.37 358.096,265.203 357,269.5C 354.657,272.956 352.157,276.956 349.5,281.5 Z"/></g>
<g><path style="opacity:1" fill="#fcde47" d="M 345.5,282.5 C 342.424,284.535 339.09,286.202 335.5,287.5C 337.611,283.882 339.945,280.382 342.5,277C 341.594,275.301 341.261,273.467 341.5,271.5C 342.006,266.843 341.173,262.51 339,258.5C 335.864,254.611 332.531,250.945 329,247.5C 327.339,243.651 325.172,240.151 322.5,237C 323.01,235.174 323.844,235.007 325,236.5C 325.391,231.718 326.224,227.051 327.5,222.5C 328.873,222.657 330.207,222.49 331.5,222C 331.167,221.667 330.833,221.333 330.5,221C 335.394,208.429 334.894,195.929 329,183.5C 322.484,175.015 314.317,167.515 304.5,161C 296.233,158.142 287.733,156.642 279,156.5C 277.381,157.083 275.548,157.083 273.5,156.5C 270.197,158.371 266.864,159.204 263.5,159C 255.118,163.496 247.118,168.496 239.5,174C 239.957,174.414 240.291,174.914 240.5,175.5C 234.799,183.16 231.132,191.66 229.5,201C 230.81,205.105 231.81,209.605 232.5,214.5C 232.5,214.833 232.5,215.167 232.5,215.5C 230.255,216.096 228.255,217.096 226.5,218.5C 224.242,218.225 223.908,217.225 225.5,215.5C 224.268,211.356 223.268,207.19 222.5,203C 224.55,198.426 225.717,193.592 226,188.5C 227.867,186.192 228.867,183.525 229,180.5C 232.603,175.388 236.436,170.388 240.5,165.5C 245.705,162.471 251.038,159.638 256.5,157C 257.59,154.451 259.257,153.617 261.5,154.5C 266.443,152.4 271.61,151.066 277,150.5C 277.75,151.126 278.584,151.626 279.5,152C 284.553,152.217 289.553,152.717 294.5,153.5C 295.086,153.291 295.586,152.957 296,152.5C 301.465,154.599 306.965,156.766 312.5,159C 329.885,170.108 338.885,185.274 339.5,204.5C 338.461,215.74 336.461,226.74 333.5,237.5C 334.025,238.192 334.692,238.692 335.5,239C 335.556,243.939 337.722,248.106 342,251.5C 343.667,254.833 345.333,258.167 347,261.5C 346.87,266.041 347.036,270.541 347.5,275C 346.678,277.472 346.011,279.972 345.5,282.5 Z"/></g>
<g><path style="opacity:1" fill="#e3b92d" d="M 263.5,131.5 C 273.5,131.5 283.5,131.5 293.5,131.5C 295.515,132.924 297.848,133.59 300.5,133.5C 305.222,133.848 309.889,134.515 314.5,135.5C 315.183,137.176 316.517,137.843 318.5,137.5C 318.833,137.5 319.167,137.5 319.5,137.5C 321.033,139.245 323.033,140.245 325.5,140.5C 327.819,140.992 329.819,141.992 331.5,143.5C 333.498,146.805 336.498,148.471 340.5,148.5C 344.841,152.342 349.507,155.842 354.5,159C 358.749,163.419 363.083,167.586 367.5,171.5C 368.984,174.898 370.651,178.231 372.5,181.5C 371.265,181.279 370.265,180.612 369.5,179.5C 368.424,184.345 369.758,188.511 373.5,192C 373.265,192.873 372.931,193.707 372.5,194.5C 375.027,202.996 376.694,211.663 377.5,220.5C 376.833,220.5 376.5,220.833 376.5,221.5C 374.258,210.498 371.425,199.498 368,188.5C 365.631,183.48 363.298,178.48 361,173.5C 350.874,161.181 338.707,151.348 324.5,144C 290.505,129.85 257.172,131.35 224.5,148.5C 223.761,148.631 223.094,148.464 222.5,148C 223.623,146.956 224.956,146.29 226.5,146C 224.5,145.333 222.5,145.333 220.5,146C 217.126,148.686 213.459,150.853 209.5,152.5C 212.32,149.555 215.654,147.055 219.5,145C 227.195,140.983 235.195,137.817 243.5,135.5C 246.553,135.889 249.22,135.223 251.5,133.5C 252.833,133.5 254.167,133.5 255.5,133.5C 258.428,133.435 261.095,132.768 263.5,131.5 Z"/></g>
<g><path style="opacity:1" fill="#fde14e" d="M 341.5,271.5 C 338.758,272.558 338.091,274.391 339.5,277C 338.099,277.41 336.766,277.91 335.5,278.5C 333.894,275.247 334.227,272.247 336.5,269.5C 333.525,265.063 331.025,260.396 329,255.5C 324.921,253.429 321.088,250.929 317.5,248C 318.833,247.333 318.833,246.667 317.5,246C 316.167,245.667 314.833,245.333 313.5,245C 313.273,242.14 311.94,239.64 309.5,237.5C 310.93,234.734 312.43,232.068 314,229.5C 314.333,229.833 314.667,230.167 315,230.5C 315.674,227.74 316.507,225.073 317.5,222.5C 319.202,221.925 320.869,221.092 322.5,220C 322.043,219.586 321.709,219.086 321.5,218.5C 321.953,216.435 322.953,214.768 324.5,213.5C 325.195,209.287 325.861,205.121 326.5,201C 324.453,196.763 322.953,191.596 322,185.5C 320.242,184.531 319.742,183.364 320.5,182C 318.263,180.142 316.43,177.976 315,175.5C 313.334,176.34 313.167,175.84 314.5,174C 311.39,173.947 309.056,172.614 307.5,170C 303.237,168.914 299.237,167.247 295.5,165C 292.5,164.5 289.5,164 286.5,163.5C 282.147,163.508 277.814,163.674 273.5,164C 265.679,166.746 258.346,170.246 251.5,174.5C 249.787,178.481 247.121,181.648 243.5,184C 243.833,184.333 244.167,184.667 244.5,185C 238.247,192.729 236.914,201.062 240.5,210C 239.619,210.708 238.953,211.542 238.5,212.5C 237.508,212.328 236.842,212.662 236.5,213.5C 235.167,213.833 233.833,214.167 232.5,214.5C 231.81,209.605 230.81,205.105 229.5,201C 231.132,191.66 234.799,183.16 240.5,175.5C 240.291,174.914 239.957,174.414 239.5,174C 247.118,168.496 255.118,163.496 263.5,159C 266.864,159.204 270.197,158.371 273.5,156.5C 275.548,157.083 277.381,157.083 279,156.5C 287.733,156.642 296.233,158.142 304.5,161C 314.317,167.515 322.484,175.015 329,183.5C 334.894,195.929 335.394,208.429 330.5,221C 330.833,221.333 331.167,221.667 331.5,222C 330.207,222.49 328.873,222.657 327.5,222.5C 326.224,227.051 325.391,231.718 325,236.5C 323.844,235.007 323.01,235.174 322.5,237C 325.172,240.151 327.339,243.651 329,247.5C 332.531,250.945 335.864,254.611 339,258.5C 341.173,262.51 342.006,266.843 341.5,271.5 Z"/></g>
<g><path style="opacity:1" fill="#fad73a" d="M 350.5,287.5 C 347.91,288.563 345.743,290.229 344,292.5C 343.617,291.944 343.117,291.611 342.5,291.5C 344.859,288.149 347.192,284.815 349.5,281.5C 352.157,276.956 354.657,272.956 357,269.5C 358.096,265.203 358.596,261.37 358.5,258C 354.397,253.729 351.397,248.729 349.5,243C 350.884,241.043 350.217,240.043 347.5,240C 347.833,239.667 348.167,239.333 348.5,239C 344.028,233.484 343.361,227.484 346.5,221C 346.487,214.983 346.32,208.816 346,202.5C 345.5,202 345,201.5 344.5,201C 344.985,198.32 345.318,195.653 345.5,193C 342.315,189.765 340.982,186.098 341.5,182C 340.376,181.751 339.376,181.251 338.5,180.5C 336.495,173.5 332.162,168.834 325.5,166.5C 325.881,164.058 325.214,163.391 323.5,164.5C 322.107,163.137 320.441,162.304 318.5,162C 314.234,158.952 310.067,155.785 306,152.5C 303.646,152.892 301.146,152.892 298.5,152.5C 298.657,151.127 298.49,149.793 298,148.5C 297.667,148.833 297.333,149.167 297,149.5C 295.077,148.684 293.077,148.017 291,147.5C 284.447,147.517 277.947,147.517 271.5,147.5C 267.527,148.384 263.527,149.051 259.5,149.5C 259.719,150.675 259.386,151.675 258.5,152.5C 240.064,159.436 226.564,171.77 218,189.5C 217.501,193.152 217.335,196.818 217.5,200.5C 215.641,200.461 214.308,201.294 213.5,203C 214.177,207.441 215.177,211.775 216.5,216C 215.976,218.44 215.642,220.607 215.5,222.5C 214.761,222.631 214.094,222.464 213.5,222C 213.665,220.883 213.998,219.716 214.5,218.5C 213.032,213.297 211.365,208.13 209.5,203C 210.15,197.662 210.817,191.996 211.5,186C 211.755,184.674 212.422,183.674 213.5,183C 212.643,182.311 211.977,181.478 211.5,180.5C 216.51,174.46 221.51,168.46 226.5,162.5C 230.054,159.652 234.054,157.985 238.5,157.5C 238.48,155.857 239.147,154.524 240.5,153.5C 245.286,150.772 250.286,148.605 255.5,147C 260.916,146.841 266.25,146.174 271.5,145C 280.478,144.584 289.311,144.418 298,144.5C 300.195,147.199 302.861,149.199 306,150.5C 306.414,150.043 306.914,149.709 307.5,149.5C 330.982,155.647 345.315,170.314 350.5,193.5C 351.325,194.386 352.325,194.719 353.5,194.5C 352.875,197.97 353.875,200.804 356.5,203C 356.612,210.437 356.279,217.437 355.5,224C 357.152,228.649 357.985,233.482 358,238.5C 358.772,239.849 359.939,240.682 361.5,241C 360.941,241.725 360.608,242.558 360.5,243.5C 364.656,254.036 365.156,264.702 362,275.5C 358.636,280.029 354.803,284.029 350.5,287.5 Z"/></g>
<g><path style="opacity:0.886" fill="#e4c161" d="M 202.5,156.5 C 200.477,159.52 197.81,161.854 194.5,163.5C 196.167,161.5 197.833,159.5 199.5,157.5C 200.609,157.443 201.609,157.11 202.5,156.5 Z"/></g>
<g><path style="opacity:0.306" fill="#f6ebcd" d="M 199.5,157.5 C 197.833,159.5 196.167,161.5 194.5,163.5C 193.833,163.5 193.167,163.5 192.5,163.5C 194.239,160.757 196.573,158.757 199.5,157.5 Z"/></g>
<g><path style="opacity:1" fill="#fde254" d="M 335.5,278.5 C 335.083,279.124 334.416,279.457 333.5,279.5C 332.994,278.176 331.661,277.509 329.5,277.5C 329.047,280.463 327.547,282.796 325,284.5C 324.583,283.244 323.75,282.577 322.5,282.5C 323.619,280.213 325.285,278.379 327.5,277C 326.868,270.974 325.368,265.14 323,259.5C 319.339,254.622 314.839,251.789 309.5,251C 308.167,250 306.833,249 305.5,248C 306.622,246.387 306.122,245.22 304,244.5C 303.661,241.964 303.161,239.464 302.5,237C 303.488,234.58 303.155,232.247 301.5,230C 302.861,228.073 303.694,225.906 304,223.5C 308.938,222.203 312.271,218.537 314,212.5C 314.333,212.833 314.667,213.167 315,213.5C 315.22,208.64 316.053,203.973 317.5,199.5C 316.513,195.032 314.846,190.865 312.5,187C 309.936,184.44 307.769,181.607 306,178.5C 304.187,179.609 303.354,178.942 303.5,176.5C 299.458,176.477 295.792,175.311 292.5,173C 286.984,173.457 281.818,173.29 277,172.5C 274.26,173.282 271.426,173.782 268.5,174C 268.833,174.333 269.167,174.667 269.5,175C 266.204,176.511 262.871,177.677 259.5,178.5C 259.5,179.5 259.5,180.5 259.5,181.5C 257.801,181.34 256.134,181.506 254.5,182C 255.167,182.333 255.833,182.667 256.5,183C 253.92,186.158 251.587,189.492 249.5,193C 250.568,196.607 250.568,199.94 249.5,203C 250.74,206.099 251.74,209.266 252.5,212.5C 247.833,212.5 243.167,212.5 238.5,212.5C 238.953,211.542 239.619,210.708 240.5,210C 236.914,201.062 238.247,192.729 244.5,185C 244.167,184.667 243.833,184.333 243.5,184C 247.121,181.648 249.787,178.481 251.5,174.5C 258.346,170.246 265.679,166.746 273.5,164C 277.814,163.674 282.147,163.508 286.5,163.5C 289.5,164 292.5,164.5 295.5,165C 299.237,167.247 303.237,168.914 307.5,170C 309.056,172.614 311.39,173.947 314.5,174C 313.167,175.84 313.334,176.34 315,175.5C 316.43,177.976 318.263,180.142 320.5,182C 319.742,183.364 320.242,184.531 322,185.5C 322.953,191.596 324.453,196.763 326.5,201C 325.861,205.121 325.195,209.287 324.5,213.5C 322.953,214.768 321.953,216.435 321.5,218.5C 321.709,219.086 322.043,219.586 322.5,220C 320.869,221.092 319.202,221.925 317.5,222.5C 316.507,225.073 315.674,227.74 315,230.5C 314.667,230.167 314.333,229.833 314,229.5C 312.43,232.068 310.93,234.734 309.5,237.5C 311.94,239.64 313.273,242.14 313.5,245C 314.833,245.333 316.167,245.667 317.5,246C 318.833,246.667 318.833,247.333 317.5,248C 321.088,250.929 324.921,253.429 329,255.5C 331.025,260.396 333.525,265.063 336.5,269.5C 334.227,272.247 333.894,275.247 335.5,278.5 Z"/></g>
<g><path style="opacity:0.357" fill="#f5eacb" d="M 192.5,163.5 C 192.5,164.833 191.833,165.5 190.5,165.5C 190.833,164.5 191.5,163.833 192.5,163.5 Z"/></g>
<g><path style="opacity:0.325" fill="#f6ebcd" d="M 190.5,165.5 C 190.5,166.833 189.833,167.5 188.5,167.5C 188.833,166.5 189.5,165.833 190.5,165.5 Z"/></g>
<g><path style="opacity:0.675" fill="#f0ddaa" d="M 188.5,167.5 C 188.378,170.292 187.044,172.292 184.5,173.5C 183.833,173.833 183.167,174.167 182.5,174.5C 183.792,171.599 185.792,169.266 188.5,167.5 Z"/></g>
<g><path style="opacity:1" fill="#fde25a" d="M 322.5,282.5 C 320.557,283.938 318.724,285.604 317,287.5C 316.667,286.833 316.333,286.167 316,285.5C 312.804,287.763 309.47,289.763 306,291.5C 296.274,291.478 286.607,291.478 277,291.5C 270.769,289.467 264.935,286.467 259.5,282.5C 258.808,283.025 258.308,283.692 258,284.5C 253.822,282.601 249.322,281.935 244.5,282.5C 244.594,279.459 243.094,277.793 240,277.5C 239.667,277.833 239.333,278.167 239,278.5C 238.751,277.376 238.251,276.376 237.5,275.5C 234.442,273.759 231.442,271.925 228.5,270C 230.488,269.82 232.488,269.986 234.5,270.5C 235.5,270.5 236.5,270.5 237.5,270.5C 239.048,271.794 241.048,272.461 243.5,272.5C 247.859,273.238 251.192,271.905 253.5,268.5C 255.027,268.573 256.027,267.906 256.5,266.5C 261.282,262.526 264.616,257.526 266.5,251.5C 267.222,251.082 267.722,250.416 268,249.5C 268.818,243.651 268.652,237.985 267.5,232.5C 266.662,232.158 266.328,231.492 266.5,230.5C 264.375,225.257 261.042,220.923 256.5,217.5C 254.833,216.833 253.167,216.167 251.5,215.5C 251.082,214.778 250.416,214.278 249.5,214C 245.848,213.501 242.182,213.335 238.5,213.5C 237.833,213.5 237.167,213.5 236.5,213.5C 236.842,212.662 237.508,212.328 238.5,212.5C 243.167,212.5 247.833,212.5 252.5,212.5C 251.74,209.266 250.74,206.099 249.5,203C 250.568,199.94 250.568,196.607 249.5,193C 251.587,189.492 253.92,186.158 256.5,183C 255.833,182.667 255.167,182.333 254.5,182C 256.134,181.506 257.801,181.34 259.5,181.5C 259.5,180.5 259.5,179.5 259.5,178.5C 262.871,177.677 266.204,176.511 269.5,175C 269.167,174.667 268.833,174.333 268.5,174C 271.426,173.782 274.26,173.282 277,172.5C 281.818,173.29 286.984,173.457 292.5,173C 295.792,175.311 299.458,176.477 303.5,176.5C 303.354,178.942 304.187,179.609 306,178.5C 307.769,181.607 309.936,184.44 312.5,187C 314.846,190.865 316.513,195.032 317.5,199.5C 316.053,203.973 315.22,208.64 315,213.5C 314.667,213.167 314.333,212.833 314,212.5C 312.271,218.537 308.938,222.203 304,223.5C 303.694,225.906 302.861,228.073 301.5,230C 303.155,232.247 303.488,234.58 302.5,237C 303.161,239.464 303.661,241.964 304,244.5C 306.122,245.22 306.622,246.387 305.5,248C 306.833,249 308.167,250 309.5,251C 314.839,251.789 319.339,254.622 323,259.5C 325.368,265.14 326.868,270.974 327.5,277C 325.285,278.379 323.619,280.213 322.5,282.5 Z"/></g>
<g><path style="opacity:0.263" fill="#f6ebd1" d="M 182.5,174.5 C 182.573,176.027 181.906,177.027 180.5,177.5C 180.427,175.973 181.094,174.973 182.5,174.5 Z"/></g>
<g><path style="opacity:0.384" fill="#f3e7c5" d="M 180.5,177.5 C 180.573,179.027 179.906,180.027 178.5,180.5C 178.427,178.973 179.094,177.973 180.5,177.5 Z"/></g>
<g><path style="opacity:0.945" fill="#ddb854" d="M 184.5,173.5 C 183.598,178.105 181.264,181.772 177.5,184.5C 177.833,183.167 178.167,181.833 178.5,180.5C 179.906,180.027 180.573,179.027 180.5,177.5C 181.906,177.027 182.573,176.027 182.5,174.5C 183.167,174.167 183.833,173.833 184.5,173.5 Z"/></g>
<g><path style="opacity:0.176" fill="#f7ecd0" d="M 367.5,171.5 C 375.162,179.818 380.495,189.485 383.5,200.5C 383.167,200.5 382.833,200.5 382.5,200.5C 379.912,193.653 376.579,187.32 372.5,181.5C 370.651,178.231 368.984,174.898 367.5,171.5 Z"/></g>
<g><path style="opacity:1" fill="#d29e14" d="M 173.5,235.5 C 170.001,232.826 168.335,229.16 168.5,224.5C 168.741,213.57 170.408,202.904 173.5,192.5C 173.328,191.508 173.662,190.842 174.5,190.5C 175.458,190.047 176.292,189.381 177,188.5C 177.167,189.5 177.333,190.5 177.5,191.5C 173.778,204.284 171.944,217.284 172,230.5C 173.009,232.025 173.509,233.692 173.5,235.5 Z"/></g>
<g><path style="opacity:1" fill="#e1b31e" d="M 224.5,148.5 C 216.878,155.115 209.212,161.782 201.5,168.5C 197.201,172.771 194.201,177.771 192.5,183.5C 191.138,186.702 189.304,189.702 187,192.5C 186.759,195.289 186.092,197.956 185,200.5C 184.333,201.833 183.667,201.833 183,200.5C 182.724,207.781 181.891,214.947 180.5,222C 180.888,230.319 182.221,238.486 184.5,246.5C 183.892,249.062 184.058,251.729 185,254.5C 185.368,255.91 186.201,256.91 187.5,257.5C 188.452,259.045 188.785,260.712 188.5,262.5C 187.18,261.058 185.514,260.392 183.5,260.5C 181.664,253.821 179.831,247.155 178,240.5C 172.708,210.796 179.874,184.962 199.5,163C 200.448,162.517 201.448,162.351 202.5,162.5C 202.351,161.448 202.517,160.448 203,159.5C 205.322,157.508 207.155,155.175 208.5,152.5C 208.833,152.5 209.167,152.5 209.5,152.5C 213.459,150.853 217.126,148.686 220.5,146C 222.5,145.333 224.5,145.333 226.5,146C 224.956,146.29 223.623,146.956 222.5,148C 223.094,148.464 223.761,148.631 224.5,148.5 Z"/></g>
<g><path style="opacity:1" fill="#deb542" d="M 372.5,181.5 C 376.579,187.32 379.912,193.653 382.5,200.5C 380.989,199.498 379.322,198.831 377.5,198.5C 377.536,193.634 376.203,189.301 373.5,185.5C 372.566,184.432 372.232,183.099 372.5,181.5 Z"/></g>
<g><path style="opacity:0.404" fill="#f3e5c5" d="M 178.5,180.5 C 178.167,181.833 177.833,183.167 177.5,184.5C 175.755,186.033 174.755,188.033 174.5,190.5C 173.662,190.842 173.328,191.508 173.5,192.5C 170.378,196.828 168.378,201.828 167.5,207.5C 165.926,209.102 165.259,211.102 165.5,213.5C 165.5,214.833 165.5,216.167 165.5,217.5C 164.833,218.5 164.167,219.5 163.5,220.5C 164.585,205.565 169.585,192.231 178.5,180.5 Z"/></g>
<g><path style="opacity:1" fill="#f3c928" d="M 214.5,167.5 C 211.396,172.196 208.396,177.029 205.5,182C 205.833,182.333 206.167,182.667 206.5,183C 205.234,183.309 204.067,183.809 203,184.5C 198.151,192.363 196.651,200.196 198.5,208C 198.506,212.374 197.506,216.374 195.5,220C 198.167,220.667 198.167,221.333 195.5,222C 197.329,222.273 198.829,223.107 200,224.5C 201.367,231.145 203.867,237.312 207.5,243C 206.633,246.105 206.299,249.272 206.5,252.5C 206.5,253.833 206.5,255.167 206.5,256.5C 204.653,253.829 201.986,252.829 198.5,253.5C 198.167,253.5 197.833,253.5 197.5,253.5C 193.813,249.811 190.48,245.811 187.5,241.5C 186.019,232.086 186.352,222.753 188.5,213.5C 188.167,210.833 187.833,208.167 187.5,205.5C 188.647,200.461 189.814,195.127 191,189.5C 191.383,188.944 191.883,188.611 192.5,188.5C 194.73,185.046 196.73,181.38 198.5,177.5C 199.842,176.098 200.676,176.431 201,178.5C 201.671,176 203.171,174.333 205.5,173.5C 208.005,174.741 209.505,173.741 210,170.5C 211.129,168.859 212.629,167.859 214.5,167.5 Z"/></g>
<g><path style="opacity:0.082" fill="#f8f0dc" d="M 383.5,200.5 C 385.253,203.146 386.253,206.146 386.5,209.5C 385.833,208.833 385.167,208.167 384.5,207.5C 384.326,205.139 383.993,202.806 383.5,200.5 Z"/></g>
<g><path style="opacity:0.882" fill="#e0be61" d="M 382.5,200.5 C 382.833,200.5 383.167,200.5 383.5,200.5C 383.993,202.806 384.326,205.139 384.5,207.5C 383.883,207.389 383.383,207.056 383,206.5C 382.505,204.527 382.338,202.527 382.5,200.5 Z"/></g>
<g><path style="opacity:0.69" fill="#e8cf8a" d="M 384.5,207.5 C 385.167,208.167 385.833,208.833 386.5,209.5C 386.5,210.833 386.5,212.167 386.5,213.5C 384.926,211.898 384.259,209.898 384.5,207.5 Z"/></g>
<g><path style="opacity:0.729" fill="#dfc174" d="M 167.5,207.5 C 167.741,209.898 167.074,211.898 165.5,213.5C 165.259,211.102 165.926,209.102 167.5,207.5 Z"/></g>
<g><path style="opacity:0.165" fill="#f6edd6" d="M 386.5,209.5 C 387.657,212.273 388.324,215.273 388.5,218.5C 387.833,217.5 387.167,216.5 386.5,215.5C 386.5,214.833 386.5,214.167 386.5,213.5C 386.5,212.167 386.5,210.833 386.5,209.5 Z"/></g>
<g><path style="opacity:1" fill="#d5aa4c" d="M 236.5,213.5 C 237.167,213.5 237.833,213.5 238.5,213.5C 236.898,215.074 234.898,215.741 232.5,215.5C 232.5,215.167 232.5,214.833 232.5,214.5C 233.833,214.167 235.167,213.833 236.5,213.5 Z"/></g>
<g><path style="opacity:1" fill="#ca981d" d="M 173.5,192.5 C 170.408,202.904 168.741,213.57 168.5,224.5C 168.335,229.16 170.001,232.826 173.5,235.5C 174.833,243.165 177.166,250.498 180.5,257.5C 176.192,252.233 172.858,246.233 170.5,239.5C 169.264,238.754 167.93,238.421 166.5,238.5C 166.167,238.5 165.833,238.5 165.5,238.5C 164.213,231.507 164.213,224.507 165.5,217.5C 165.5,216.167 165.5,214.833 165.5,213.5C 167.074,211.898 167.741,209.898 167.5,207.5C 168.378,201.828 170.378,196.828 173.5,192.5 Z"/></g>
<g><path style="opacity:1" fill="#bd8349" d="M 238.5,213.5 C 242.182,213.335 245.848,213.501 249.5,214C 250.416,214.278 251.082,214.778 251.5,215.5C 246.064,215.604 241.064,216.604 236.5,218.5C 234.435,218.483 232.435,218.15 230.5,217.5C 229.533,218.806 228.199,219.473 226.5,219.5C 226.5,219.167 226.5,218.833 226.5,218.5C 228.255,217.096 230.255,216.096 232.5,215.5C 234.898,215.741 236.898,215.074 238.5,213.5 Z"/></g>
<g><path style="opacity:1" fill="#e9bb1e" d="M 192.5,183.5 C 192.5,185.167 192.5,186.833 192.5,188.5C 191.883,188.611 191.383,188.944 191,189.5C 189.814,195.127 188.647,200.461 187.5,205.5C 187.833,208.167 188.167,210.833 188.5,213.5C 186.352,222.753 186.019,232.086 187.5,241.5C 190.48,245.811 193.813,249.811 197.5,253.5C 194.975,252.36 192.308,251.693 189.5,251.5C 188.442,250.4 187.608,249.066 187,247.5C 186.329,246.748 185.496,246.414 184.5,246.5C 182.221,238.486 180.888,230.319 180.5,222C 181.891,214.947 182.724,207.781 183,200.5C 183.667,201.833 184.333,201.833 185,200.5C 186.092,197.956 186.759,195.289 187,192.5C 189.304,189.702 191.138,186.702 192.5,183.5 Z"/></g>
<g><path style="opacity:1" fill="#7f583a" d="M 230.5,217.5 C 232.435,218.15 234.435,218.483 236.5,218.5C 240.43,216.952 244.097,217.285 247.5,219.5C 243.154,219.334 238.821,219.501 234.5,220C 233.016,220.662 231.683,221.496 230.5,222.5C 231.562,220.766 231.562,219.099 230.5,217.5 Z"/></g>
<g><path style="opacity:1" fill="#a96f41" d="M 251.5,215.5 C 253.167,216.167 254.833,216.833 256.5,217.5C 256.929,220.734 257.929,223.734 259.5,226.5C 260.806,227.467 261.473,228.801 261.5,230.5C 259.184,227.905 256.851,225.239 254.5,222.5C 252.261,221.212 249.928,220.212 247.5,219.5C 244.097,217.285 240.43,216.952 236.5,218.5C 241.064,216.604 246.064,215.604 251.5,215.5 Z"/></g>
<g><path style="opacity:0.659" fill="#e7cf8a" d="M 386.5,215.5 C 387.167,216.5 387.833,217.5 388.5,218.5C 388.5,219.833 388.5,221.167 388.5,222.5C 387.833,221.5 387.167,220.5 386.5,219.5C 386.5,218.167 386.5,216.833 386.5,215.5 Z"/></g>
<g><path style="opacity:1" fill="#f1c92d" d="M 374.5,247.5 C 373.766,255.428 372.599,263.428 371,271.5C 367.499,284.83 359.332,293.83 346.5,298.5C 349.25,295.945 352.25,293.612 355.5,291.5C 356.705,290.423 357.372,289.09 357.5,287.5C 359.129,286.375 360.629,285.041 362,283.5C 366.511,274.886 369.011,265.886 369.5,256.5C 366.67,249.182 364.837,241.849 364,234.5C 363.762,230.778 363.262,227.111 362.5,223.5C 363.022,222.393 363.355,221.226 363.5,220C 361.771,212.585 360.604,205.085 360,197.5C 356.887,187.648 352.72,178.314 347.5,169.5C 346.15,168.05 344.484,167.383 342.5,167.5C 341.134,164.936 339.467,162.436 337.5,160C 332.258,157.43 327.258,154.43 322.5,151C 308.709,144.774 294.209,141.608 279,141.5C 259.691,141.286 242.858,146.452 228.5,157C 222.867,159.306 218.2,162.806 214.5,167.5C 212.629,167.859 211.129,168.859 210,170.5C 209.505,173.741 208.005,174.741 205.5,173.5C 208.173,168.313 211.84,163.813 216.5,160C 226.43,152.198 237.43,146.198 249.5,142C 284.994,133.749 316.994,140.582 345.5,162.5C 347.01,166.241 349.677,168.574 353.5,169.5C 353.491,171.308 353.991,172.975 355,174.5C 358.31,176.146 360.977,178.48 363,181.5C 367.277,195.273 370.444,209.106 372.5,223C 373.368,231.1 374.035,239.267 374.5,247.5 Z"/></g>
<g><path style="opacity:1" fill="#aa7243" d="M 230.5,217.5 C 231.562,219.099 231.562,220.766 230.5,222.5C 226.975,224.025 224.975,226.691 224.5,230.5C 222.836,231.949 222.002,233.949 222,236.5C 221.19,240.358 221.357,244.024 222.5,247.5C 222.5,248.833 222.5,250.167 222.5,251.5C 222.5,252.167 222.5,252.833 222.5,253.5C 221.504,253.414 220.671,253.748 220,254.5C 220.761,247.14 220.594,239.807 219.5,232.5C 220.424,229.204 221.424,225.871 222.5,222.5C 224.23,221.974 225.564,220.974 226.5,219.5C 228.199,219.473 229.533,218.806 230.5,217.5 Z"/></g>
<g><path style="opacity:1" fill="#c18644" d="M 256.5,217.5 C 261.042,220.923 264.375,225.257 266.5,230.5C 264.912,229.359 263.579,227.859 262.5,226C 261.423,225.53 260.423,225.697 259.5,226.5C 257.929,223.734 256.929,220.734 256.5,217.5 Z"/></g>
<g><path style="opacity:0.349" fill="#f4e8c8" d="M 388.5,218.5 C 389.709,222.618 390.376,226.951 390.5,231.5C 390.5,232.5 390.5,233.5 390.5,234.5C 389.833,232.5 389.167,230.5 388.5,228.5C 388.5,226.5 388.5,224.5 388.5,222.5C 388.5,221.167 388.5,219.833 388.5,218.5 Z"/></g>
<g><path style="opacity:0.643" fill="#e8d09d" d="M 165.5,217.5 C 164.213,224.507 164.213,231.507 165.5,238.5C 165.672,239.492 165.338,240.158 164.5,240.5C 164.737,239.209 164.404,238.209 163.5,237.5C 162.167,231.833 162.167,226.167 163.5,220.5C 164.167,219.5 164.833,218.5 165.5,217.5 Z"/></g>
<g><path style="opacity:0.298" fill="#ebd7be" d="M 163.5,237.5 C 164.404,238.209 164.737,239.209 164.5,240.5C 163.833,241.833 162.833,242.833 161.5,243.5C 160.833,243.5 160.167,243.5 159.5,243.5C 161.192,241.795 162.525,239.795 163.5,237.5 Z"/></g>
<g><path style="opacity:1" fill="#cf9d43" d="M 222.5,222.5 C 221.424,225.871 220.424,229.204 219.5,232.5C 218.778,232.918 218.278,233.584 218,234.5C 217.501,239.489 217.334,244.489 217.5,249.5C 216.513,244.695 216.179,239.695 216.5,234.5C 216.5,234.167 216.5,233.833 216.5,233.5C 217.737,229.356 219.737,225.689 222.5,222.5 Z"/></g>
<g><path style="opacity:1" fill="#201f1e" d="M 247.5,219.5 C 249.928,220.212 252.261,221.212 254.5,222.5C 256.851,225.239 259.184,227.905 261.5,230.5C 261.833,231.833 262.167,233.167 262.5,234.5C 263.031,241.078 262.365,247.412 260.5,253.5C 259.107,252.74 257.607,252.074 256,251.5C 251.389,252.986 246.723,254.32 242,255.5C 237.426,254.776 233.093,253.443 229,251.5C 227.826,252.544 226.659,253.544 225.5,254.5C 224.272,253.694 223.272,252.694 222.5,251.5C 222.5,250.167 222.5,248.833 222.5,247.5C 222.437,241.731 223.104,236.064 224.5,230.5C 224.975,226.691 226.975,224.025 230.5,222.5C 231.683,221.496 233.016,220.662 234.5,220C 238.821,219.501 243.154,219.334 247.5,219.5 Z"/></g>
<g><path style="opacity:1" fill="#343332" d="M 245.5,222.5 C 243.265,222.205 241.265,222.539 239.5,223.5C 238.532,225.607 238.198,227.941 238.5,230.5C 241.187,230.664 243.854,230.497 246.5,230C 247.435,227.619 247.768,225.119 247.5,222.5C 248.777,223.694 249.444,225.36 249.5,227.5C 250.031,231.772 248.198,234.105 244,234.5C 237.958,233.797 235.292,230.464 236,224.5C 237.907,220.99 240.74,219.824 244.5,221C 245.056,221.383 245.389,221.883 245.5,222.5 Z"/></g>
<g><path style="opacity:1" fill="#727270" d="M 245.5,222.5 C 246.167,222.5 246.833,222.5 247.5,222.5C 247.768,225.119 247.435,227.619 246.5,230C 243.854,230.497 241.187,230.664 238.5,230.5C 238.198,227.941 238.532,225.607 239.5,223.5C 239.216,225.415 239.549,227.081 240.5,228.5C 242.167,228.5 243.833,228.5 245.5,228.5C 245.5,227.167 245.5,225.833 245.5,224.5C 245.5,223.833 245.5,223.167 245.5,222.5 Z"/></g>
<g><path style="opacity:1" fill="#cccbcb" d="M 245.5,224.5 C 245.5,225.833 245.5,227.167 245.5,228.5C 243.833,228.5 242.167,228.5 240.5,228.5C 240.5,226.833 240.5,225.167 240.5,223.5C 242.292,223.366 243.958,223.699 245.5,224.5 Z"/></g>
<g><path style="opacity:1" fill="#939392" d="M 245.5,222.5 C 245.5,223.167 245.5,223.833 245.5,224.5C 243.958,223.699 242.292,223.366 240.5,223.5C 240.5,225.167 240.5,226.833 240.5,228.5C 239.549,227.081 239.216,225.415 239.5,223.5C 241.265,222.539 243.265,222.205 245.5,222.5 Z"/></g>
<g><path style="opacity:1" fill="#d09c48" d="M 267.5,232.5 C 268.652,237.985 268.818,243.651 268,249.5C 267.722,250.416 267.222,251.082 266.5,251.5C 267.32,245.203 267.653,238.869 267.5,232.5 Z"/></g>
<g><path style="opacity:1" fill="#d9a91a" d="M 208.5,152.5 C 207.155,155.175 205.322,157.508 203,159.5C 202.517,160.448 202.351,161.448 202.5,162.5C 201.448,162.351 200.448,162.517 199.5,163C 179.874,184.962 172.708,210.796 178,240.5C 179.831,247.155 181.664,253.821 183.5,260.5C 182.272,259.694 181.272,258.694 180.5,257.5C 177.166,250.498 174.833,243.165 173.5,235.5C 173.509,233.692 173.009,232.025 172,230.5C 171.944,217.284 173.778,204.284 177.5,191.5C 177.333,190.5 177.167,189.5 177,188.5C 176.292,189.381 175.458,190.047 174.5,190.5C 174.755,188.033 175.755,186.033 177.5,184.5C 181.264,181.772 183.598,178.105 184.5,173.5C 187.044,172.292 188.378,170.292 188.5,167.5C 189.833,167.5 190.5,166.833 190.5,165.5C 191.833,165.5 192.5,164.833 192.5,163.5C 193.167,163.5 193.833,163.5 194.5,163.5C 197.81,161.854 200.477,159.52 202.5,156.5C 204.147,154.674 206.147,153.34 208.5,152.5 Z"/></g>
<g><path style="opacity:1" fill="#433426" d="M 224.5,230.5 C 223.104,236.064 222.437,241.731 222.5,247.5C 221.357,244.024 221.19,240.358 222,236.5C 222.002,233.949 222.836,231.949 224.5,230.5 Z"/></g>
<g><path style="opacity:0.687" fill="#e4c979" d="M 388.5,228.5 C 389.167,230.5 389.833,232.5 390.5,234.5C 390.666,244.172 390.5,253.839 390,263.5C 389.814,266.036 389.314,268.369 388.5,270.5C 388.5,256.5 388.5,242.5 388.5,228.5 Z"/></g>
<g><path style="opacity:0.996" fill="#d1996b" d="M 159.5,243.5 C 160.167,243.5 160.833,243.5 161.5,243.5C 160.73,245.935 159.063,247.269 156.5,247.5C 157.789,246.363 158.789,245.03 159.5,243.5 Z"/></g>
<g><path style="opacity:1" fill="#b6763f" d="M 266.5,230.5 C 266.328,231.492 266.662,232.158 267.5,232.5C 267.653,238.869 267.32,245.203 266.5,251.5C 264.616,257.526 261.282,262.526 256.5,266.5C 253.803,265.37 251.137,265.37 248.5,266.5C 249.984,264.926 251.651,263.593 253.5,262.5C 254.222,261.449 255.222,260.782 256.5,260.5C 264.161,253.185 266.161,244.518 262.5,234.5C 262.167,233.167 261.833,231.833 261.5,230.5C 261.473,228.801 260.806,227.467 259.5,226.5C 260.423,225.697 261.423,225.53 262.5,226C 263.579,227.859 264.912,229.359 266.5,230.5 Z"/></g>
<g><path style="opacity:0.235" fill="#efdfd1" d="M 159.5,243.5 C 158.789,245.03 157.789,246.363 156.5,247.5C 151.787,251.883 147.12,256.217 142.5,260.5C 147.167,253.833 152.833,248.167 159.5,243.5 Z"/></g>
<g><path style="opacity:1" fill="#76512e" d="M 262.5,234.5 C 266.161,244.518 264.161,253.185 256.5,260.5C 257.167,259.167 257.833,257.833 258.5,256.5C 259.167,255.5 259.833,254.5 260.5,253.5C 262.365,247.412 263.031,241.078 262.5,234.5 Z"/></g>
<g><path style="opacity:1" fill="#e2a95d" d="M 171.5,249.5 C 173.674,252.515 175.341,255.849 176.5,259.5C 178.344,262.865 180.011,266.365 181.5,270C 178.385,272.117 175.052,273.784 171.5,275C 163.856,275.324 157.523,278.324 152.5,284C 149.518,284.498 146.518,284.665 143.5,284.5C 143.5,283.167 143.5,281.833 143.5,280.5C 143.519,278.94 143.852,277.44 144.5,276C 146.438,274.569 147.771,272.735 148.5,270.5C 155.309,262.349 162.975,255.349 171.5,249.5 Z"/></g>
<g><path style="opacity:1" fill="#c97e3a" d="M 165.5,238.5 C 165.833,238.5 166.167,238.5 166.5,238.5C 166.5,239.5 166.5,240.5 166.5,241.5C 167.5,241.5 168.5,241.5 169.5,241.5C 170.167,244.167 170.833,246.833 171.5,249.5C 162.975,255.349 155.309,262.349 148.5,270.5C 145.939,272.371 143.439,274.371 141,276.5C 138.474,283.885 135.141,290.885 131,297.5C 130.51,298.793 130.343,300.127 130.5,301.5C 129.473,303.184 128.473,304.851 127.5,306.5C 125.833,306.5 124.167,306.5 122.5,306.5C 123.74,301.59 124.573,296.59 125,291.5C 125.333,292.5 125.667,293.5 126,294.5C 129.465,287.243 132.631,279.91 135.5,272.5C 135.351,271.448 135.517,270.448 136,269.5C 138.676,266.794 140.842,263.794 142.5,260.5C 147.12,256.217 151.787,251.883 156.5,247.5C 159.063,247.269 160.73,245.935 161.5,243.5C 162.833,242.833 163.833,241.833 164.5,240.5C 165.338,240.158 165.672,239.492 165.5,238.5 Z"/></g>
<g><path style="opacity:1" fill="#bb762c" d="M 166.5,238.5 C 167.93,238.421 169.264,238.754 170.5,239.5C 172.858,246.233 176.192,252.233 180.5,257.5C 181.272,258.694 182.272,259.694 183.5,260.5C 183.539,261.583 183.873,262.583 184.5,263.5C 190.856,270.926 197.19,278.259 203.5,285.5C 204.167,286.833 204.833,288.167 205.5,289.5C 205.5,290.167 205.5,290.833 205.5,291.5C 200.135,294.006 194.469,295.006 188.5,294.5C 191.986,293.467 195.653,292.633 199.5,292C 200.769,288.419 200.436,284.919 198.5,281.5C 195.705,279.136 193.038,276.802 190.5,274.5C 188.5,273.167 186.5,271.833 184.5,270.5C 183.359,265.697 180.692,262.03 176.5,259.5C 175.341,255.849 173.674,252.515 171.5,249.5C 170.833,246.833 170.167,244.167 169.5,241.5C 168.5,241.5 167.5,241.5 166.5,241.5C 166.5,240.5 166.5,239.5 166.5,238.5 Z"/></g>
<g><path style="opacity:1" fill="#d5a91e" d="M 183.5,260.5 C 185.514,260.392 187.18,261.058 188.5,262.5C 191.792,264.624 194.625,267.29 197,270.5C 199.186,274.198 201.853,277.532 205,280.5C 205.483,281.448 205.649,282.448 205.5,283.5C 205.5,284.167 205.5,284.833 205.5,285.5C 204.833,285.5 204.167,285.5 203.5,285.5C 197.19,278.259 190.856,270.926 184.5,263.5C 183.873,262.583 183.539,261.583 183.5,260.5 Z"/></g>
<g><path style="opacity:1" fill="#b47a48" d="M 219.5,232.5 C 220.594,239.807 220.761,247.14 220,254.5C 220.671,253.748 221.504,253.414 222.5,253.5C 223.167,255.5 224.5,256.833 226.5,257.5C 226.5,257.833 226.5,258.167 226.5,258.5C 226.833,259.5 227.5,260.167 228.5,260.5C 230.401,262.796 232.734,264.629 235.5,266C 239.821,266.499 244.154,266.666 248.5,266.5C 251.137,265.37 253.803,265.37 256.5,266.5C 256.027,267.906 255.027,268.573 253.5,268.5C 248.356,270.264 243.023,270.931 237.5,270.5C 236.5,270.5 235.5,270.5 234.5,270.5C 233.015,268.769 231.015,267.769 228.5,267.5C 228.5,267.167 228.5,266.833 228.5,266.5C 228.5,265.167 227.833,264.5 226.5,264.5C 225.833,264.167 225.167,263.833 224.5,263.5C 223.92,261.251 222.587,259.585 220.5,258.5C 218.647,255.792 217.647,252.792 217.5,249.5C 217.334,244.489 217.501,239.489 218,234.5C 218.278,233.584 218.778,232.918 219.5,232.5 Z"/></g>
<g><path style="opacity:1" fill="#de9f54" d="M 176.5,259.5 C 180.692,262.03 183.359,265.697 184.5,270.5C 184.785,272.288 184.452,273.955 183.5,275.5C 170.024,280.156 156.858,285.49 144,291.5C 140.901,287.962 140.735,284.295 143.5,280.5C 143.5,281.833 143.5,283.167 143.5,284.5C 146.518,284.665 149.518,284.498 152.5,284C 157.523,278.324 163.856,275.324 171.5,275C 175.052,273.784 178.385,272.117 181.5,270C 180.011,266.365 178.344,262.865 176.5,259.5 Z"/></g>
<g><path style="opacity:1" fill="#da9549" d="M 148.5,270.5 C 147.771,272.735 146.438,274.569 144.5,276C 143.852,277.44 143.519,278.94 143.5,280.5C 140.735,284.295 140.901,287.962 144,291.5C 156.858,285.49 170.024,280.156 183.5,275.5C 184.452,273.955 184.785,272.288 184.5,270.5C 186.5,271.833 188.5,273.167 190.5,274.5C 192.289,277.292 193.623,280.292 194.5,283.5C 187.739,285.379 181.739,288.545 176.5,293C 176.833,293.333 177.167,293.667 177.5,294C 172.371,295.506 167.371,297.006 162.5,298.5C 160.007,299.774 157.341,300.44 154.5,300.5C 148.538,300.346 142.704,301.012 137,302.5C 134.745,302.434 132.578,302.101 130.5,301.5C 130.343,300.127 130.51,298.793 131,297.5C 135.141,290.885 138.474,283.885 141,276.5C 143.439,274.371 145.939,272.371 148.5,270.5 Z"/></g>
<g><path style="opacity:0.678" fill="#e0c571" d="M 388.5,272.5 C 388.678,276.122 388.011,279.456 386.5,282.5C 386.322,278.878 386.989,275.544 388.5,272.5 Z"/></g>
<g><path style="opacity:1" fill="#f6d543" d="M 216.5,234.5 C 216.179,239.695 216.513,244.695 217.5,249.5C 217.647,252.792 218.647,255.792 220.5,258.5C 221.136,260.795 222.469,262.461 224.5,263.5C 225.167,263.833 225.833,264.167 226.5,264.5C 227.833,264.5 228.5,265.167 228.5,266.5C 228.5,266.833 228.5,267.167 228.5,267.5C 227.726,268.147 226.726,268.48 225.5,268.5C 222.829,267.643 220.163,267.143 217.5,267C 219.771,272.057 223.105,276.223 227.5,279.5C 232.528,281.692 236.862,284.859 240.5,289C 250.269,292.047 259.603,295.047 268.5,298C 292.069,302.019 314.402,298.519 335.5,287.5C 339.09,286.202 342.424,284.535 345.5,282.5C 346.959,282.567 348.292,282.234 349.5,281.5C 347.192,284.815 344.859,288.149 342.5,291.5C 331.669,298.387 319.669,302.887 306.5,305C 298.627,306.506 290.793,306.672 283,305.5C 265.903,309.422 250.07,306.255 235.5,296C 228.307,288.638 221.64,280.805 215.5,272.5C 214.624,272.631 213.957,272.298 213.5,271.5C 210.651,265.809 208.984,259.809 208.5,253.5C 208.321,251.636 208.821,249.636 210,247.5C 211.566,246.939 212.899,247.606 214,249.5C 214.333,244.833 214.667,240.167 215,235.5C 215.383,234.944 215.883,234.611 216.5,234.5 Z"/></g>
<g><path style="opacity:1" fill="#c87d34" d="M 190.5,274.5 C 193.038,276.802 195.705,279.136 198.5,281.5C 200.436,284.919 200.769,288.419 199.5,292C 195.653,292.633 191.986,293.467 188.5,294.5C 184.353,295.325 180.019,295.825 175.5,296C 174.584,296.278 173.918,296.778 173.5,297.5C 169.821,297.724 166.154,298.058 162.5,298.5C 167.371,297.006 172.371,295.506 177.5,294C 177.167,293.667 176.833,293.333 176.5,293C 181.739,288.545 187.739,285.379 194.5,283.5C 193.623,280.292 192.289,277.292 190.5,274.5 Z"/></g>
<g><path style="opacity:1" fill="#d7ab1b" d="M 373.5,185.5 C 376.203,189.301 377.536,193.634 377.5,198.5C 379.322,198.831 380.989,199.498 382.5,200.5C 382.338,202.527 382.505,204.527 383,206.5C 383.383,207.056 383.883,207.389 384.5,207.5C 384.259,209.898 384.926,211.898 386.5,213.5C 386.5,214.167 386.5,214.833 386.5,215.5C 386.5,216.833 386.5,218.167 386.5,219.5C 387.557,234.494 387.39,249.494 386,264.5C 382.316,290.503 368.483,308.67 344.5,319C 323.204,327.289 301.37,332.122 279,333.5C 252.839,330.678 230.506,320.011 212,301.5C 211.626,299.509 210.793,297.842 209.5,296.5C 209.768,294.901 209.434,293.568 208.5,292.5C 208.5,291.833 208.167,291.5 207.5,291.5C 207.5,290.833 207.5,290.167 207.5,289.5C 208.376,289.369 209.043,289.702 209.5,290.5C 211.342,295.342 214.009,299.675 217.5,303.5C 225.243,309.247 233.243,314.581 241.5,319.5C 264.685,330.448 288.685,332.448 313.5,325.5C 328.245,322.198 342.245,317.031 355.5,310C 362.007,305.326 367.674,299.826 372.5,293.5C 373.804,289.56 375.637,285.893 378,282.5C 380.115,274.953 382.282,267.453 384.5,260C 383.751,258.266 383.251,256.433 383,254.5C 383.759,237.239 381.592,220.405 376.5,204C 375.826,197.758 374.826,191.591 373.5,185.5 Z"/></g>
<g><path style="opacity:0.165" fill="#f6efd7" d="M 390.5,231.5 C 392.076,248.077 391.576,264.744 389,281.5C 388.053,286.47 386.553,291.137 384.5,295.5C 384.5,294.5 384.5,293.5 384.5,292.5C 384.5,291.5 384.5,290.5 384.5,289.5C 386.074,287.898 386.741,285.898 386.5,283.5C 386.5,283.167 386.5,282.833 386.5,282.5C 388.011,279.456 388.678,276.122 388.5,272.5C 388.5,271.833 388.5,271.167 388.5,270.5C 389.314,268.369 389.814,266.036 390,263.5C 390.5,253.839 390.666,244.172 390.5,234.5C 390.5,233.5 390.5,232.5 390.5,231.5 Z"/></g>
<g><path style="opacity:0.2" fill="#e9d6c5" d="M 142.5,260.5 C 140.842,263.794 138.676,266.794 136,269.5C 135.517,270.448 135.351,271.448 135.5,272.5C 134.265,272.721 133.265,273.388 132.5,274.5C 128.855,281.36 125.355,288.36 122,295.5C 119.631,301.172 119.131,306.839 120.5,312.5C 123.069,312.738 124.735,314.071 125.5,316.5C 117.845,314.88 115.345,310.214 118,302.5C 120.967,292.232 125.3,282.565 131,273.5C 134.398,268.646 138.231,264.313 142.5,260.5 Z"/></g>
<g><path style="opacity:0.569" fill="#e0c36e" d="M 386.5,283.5 C 386.741,285.898 386.074,287.898 384.5,289.5C 384.5,288.167 384.5,286.833 384.5,285.5C 385.167,284.833 385.833,284.167 386.5,283.5 Z"/></g>
<g><path style="opacity:0.682" fill="#e8d293" d="M 384.5,292.5 C 384.5,293.5 384.5,294.5 384.5,295.5C 384.672,296.492 384.338,297.158 383.5,297.5C 383.167,297.5 382.833,297.5 382.5,297.5C 382.12,295.302 382.787,293.635 384.5,292.5 Z"/></g>
<g><path style="opacity:1" fill="#b77437" d="M 135.5,272.5 C 132.631,279.91 129.465,287.243 126,294.5C 125.667,293.5 125.333,292.5 125,291.5C 124.573,296.59 123.74,301.59 122.5,306.5C 124.167,306.5 125.833,306.5 127.5,306.5C 129.5,306.5 131.5,306.5 133.5,306.5C 128.956,308.275 124.623,310.275 120.5,312.5C 119.131,306.839 119.631,301.172 122,295.5C 125.355,288.36 128.855,281.36 132.5,274.5C 133.265,273.388 134.265,272.721 135.5,272.5 Z"/></g>
<g><path style="opacity:1" fill="#844b1b" d="M 171.5,301.5 C 162.4,302.156 153.567,303.822 145,306.5C 143.833,306.333 142.667,306.167 141.5,306C 144.069,305.102 146.402,303.935 148.5,302.5C 150.898,302.741 152.898,302.074 154.5,300.5C 157.341,300.44 160.007,299.774 162.5,298.5C 166.154,298.058 169.821,297.724 173.5,297.5C 178.844,297.666 184.177,297.499 189.5,297C 194.093,295.749 198.759,294.915 203.5,294.5C 203.5,295.5 203.5,296.5 203.5,297.5C 192.861,298.524 182.195,299.858 171.5,301.5 Z"/></g>
<g><path style="opacity:1" fill="#8b4b11" d="M 203.5,299.5 C 203.59,302.152 202.924,304.485 201.5,306.5C 199.223,311.733 196.89,317.067 194.5,322.5C 194.043,323.298 193.376,323.631 192.5,323.5C 175.243,323.895 158.909,322.561 143.5,319.5C 139.201,318.653 134.867,317.987 130.5,317.5C 130.962,316.12 131.962,315.453 133.5,315.5C 136.999,315.563 140.499,315.896 144,316.5C 146.242,314.634 148.742,313.134 151.5,312C 152.784,311.316 153.951,311.483 155,312.5C 157.32,309.984 159.987,308.984 163,309.5C 166.924,306.071 171.424,303.571 176.5,302C 185.461,300.689 194.461,299.856 203.5,299.5 Z"/></g>
<g><path style="opacity:1" fill="#c28238" d="M 154.5,300.5 C 152.898,302.074 150.898,302.741 148.5,302.5C 143.5,303.833 138.5,305.167 133.5,306.5C 131.5,306.5 129.5,306.5 127.5,306.5C 128.473,304.851 129.473,303.184 130.5,301.5C 132.578,302.101 134.745,302.434 137,302.5C 142.704,301.012 148.538,300.346 154.5,300.5 Z"/></g>
<g><path style="opacity:1" fill="#c99915" d="M 207.5,291.5 C 208.167,291.5 208.5,291.833 208.5,292.5C 208.334,297.844 208.501,303.177 209,308.5C 212.003,314.002 216.17,318.335 221.5,321.5C 222.668,322.906 222.335,324.072 220.5,325C 223.529,325.539 226.529,326.206 229.5,327C 242.891,335.191 257.558,339.191 273.5,339C 281.167,339.667 288.833,339.667 296.5,339C 306.789,336.721 317.123,334.721 327.5,333C 338.278,328.715 348.611,324.215 358.5,319.5C 364.441,314.615 370.274,309.615 376,304.5C 376.49,305.793 376.657,307.127 376.5,308.5C 370.913,317.422 363.913,325.089 355.5,331.5C 356.507,328.642 358.173,326.142 360.5,324C 357.863,324.493 355.53,325.827 353.5,328C 349.624,328.881 345.958,330.214 342.5,332C 340.527,332.495 338.527,332.662 336.5,332.5C 336.5,333.5 336.5,334.5 336.5,335.5C 323.544,338.79 310.544,341.624 297.5,344C 287.59,344.18 277.756,344.68 268,345.5C 262.09,343.316 255.923,341.816 249.5,341C 246.962,338.558 244.128,338.058 241,339.5C 240.326,338.422 239.326,337.755 238,337.5C 231.746,336.604 225.746,334.938 220,332.5C 216.803,326.127 212.969,320.127 208.5,314.5C 207.503,306.862 207.169,299.196 207.5,291.5 Z"/></g>
<g><path style="opacity:1" fill="#945218" d="M 205.5,291.5 C 205.868,294.533 205.202,297.2 203.5,299.5C 194.461,299.856 185.461,300.689 176.5,302C 171.424,303.571 166.924,306.071 163,309.5C 159.987,308.984 157.32,309.984 155,312.5C 153.951,311.483 152.784,311.316 151.5,312C 148.742,313.134 146.242,314.634 144,316.5C 140.499,315.896 136.999,315.563 133.5,315.5C 131.962,315.453 130.962,316.12 130.5,317.5C 130.167,317.5 129.833,317.5 129.5,317.5C 129.423,316.25 128.756,315.417 127.5,315C 140.249,309.963 153.582,306.296 167.5,304C 169.066,303.392 170.4,302.558 171.5,301.5C 182.195,299.858 192.861,298.524 203.5,297.5C 203.5,296.5 203.5,295.5 203.5,294.5C 198.759,294.915 194.093,295.749 189.5,297C 184.177,297.499 178.844,297.666 173.5,297.5C 173.918,296.778 174.584,296.278 175.5,296C 180.019,295.825 184.353,295.325 188.5,294.5C 194.469,295.006 200.135,294.006 205.5,291.5 Z"/></g>
<g><path style="opacity:1" fill="#975b28" d="M 171.5,301.5 C 170.4,302.558 169.066,303.392 167.5,304C 153.582,306.296 140.249,309.963 127.5,315C 128.756,315.417 129.423,316.25 129.5,317.5C 128.167,317.167 126.833,316.833 125.5,316.5C 124.735,314.071 123.069,312.738 120.5,312.5C 124.623,310.275 128.956,308.275 133.5,306.5C 138.5,305.167 143.5,303.833 148.5,302.5C 146.402,303.935 144.069,305.102 141.5,306C 142.667,306.167 143.833,306.333 145,306.5C 153.567,303.822 162.4,302.156 171.5,301.5 Z"/></g>
<g><path style="opacity:1" fill="#ddb21f" d="M 372.5,181.5 C 372.232,183.099 372.566,184.432 373.5,185.5C 374.826,191.591 375.826,197.758 376.5,204C 381.592,220.405 383.759,237.239 383,254.5C 383.251,256.433 383.751,258.266 384.5,260C 382.282,267.453 380.115,274.953 378,282.5C 375.637,285.893 373.804,289.56 372.5,293.5C 367.674,299.826 362.007,305.326 355.5,310C 342.245,317.031 328.245,322.198 313.5,325.5C 288.685,332.448 264.685,330.448 241.5,319.5C 233.243,314.581 225.243,309.247 217.5,303.5C 214.009,299.675 211.342,295.342 209.5,290.5C 209.043,289.702 208.376,289.369 207.5,289.5C 207.34,287.847 206.674,286.514 205.5,285.5C 205.5,284.833 205.5,284.167 205.5,283.5C 228.659,316.06 260.326,329.56 300.5,324C 313.456,320.458 326.456,317.125 339.5,314C 345.281,310.55 351.281,307.55 357.5,305C 372.541,293.92 380.208,278.92 380.5,260C 379.677,247.242 379.177,234.409 379,221.5C 378.617,220.944 378.117,220.611 377.5,220.5C 376.694,211.663 375.027,202.996 372.5,194.5C 372.931,193.707 373.265,192.873 373.5,192C 369.758,188.511 368.424,184.345 369.5,179.5C 370.265,180.612 371.265,181.279 372.5,181.5 Z"/></g>
<g><path style="opacity:1" fill="#966508" d="M 201.5,306.5 C 201.665,309.518 201.498,312.518 201,315.5C 199.796,317.823 198.962,320.323 198.5,323C 197.59,324.749 196.257,325.916 194.5,326.5C 194.158,325.662 193.492,325.328 192.5,325.5C 192.5,325.167 192.5,324.833 192.5,324.5C 192.5,324.167 192.5,323.833 192.5,323.5C 193.376,323.631 194.043,323.298 194.5,322.5C 196.89,317.067 199.223,311.733 201.5,306.5 Z"/></g>
<g><path style="opacity:1" fill="#b78718" d="M 204.5,308.5 C 204.335,311.518 204.502,314.518 205,317.5C 205.888,327.63 210.054,336.13 217.5,343C 216.829,343.986 216.829,345.153 217.5,346.5C 217.167,346.5 216.833,346.5 216.5,346.5C 214.313,345.242 211.98,344.242 209.5,343.5C 207.777,341.782 205.777,340.449 203.5,339.5C 202.925,337.589 201.925,335.922 200.5,334.5C 201.391,333.739 202.058,332.739 202.5,331.5C 200.854,323.527 201.52,315.86 204.5,308.5 Z"/></g>
<g><path style="opacity:1" fill="#a67144" d="M 129.5,317.5 C 129.833,317.5 130.167,317.5 130.5,317.5C 134.867,317.987 139.201,318.653 143.5,319.5C 143.5,320.167 143.5,320.833 143.5,321.5C 140.833,321.167 138.167,320.833 135.5,320.5C 133.629,319.203 131.629,318.203 129.5,317.5 Z"/></g>
<g><path style="opacity:1" fill="#e2b823" d="M 377.5,220.5 C 378.117,220.611 378.617,220.944 379,221.5C 379.177,234.409 379.677,247.242 380.5,260C 380.208,278.92 372.541,293.92 357.5,305C 351.281,307.55 345.281,310.55 339.5,314C 326.456,317.125 313.456,320.458 300.5,324C 260.326,329.56 228.659,316.06 205.5,283.5C 205.649,282.448 205.483,281.448 205,280.5C 201.853,277.532 199.186,274.198 197,270.5C 194.625,267.29 191.792,264.624 188.5,262.5C 188.785,260.712 188.452,259.045 187.5,257.5C 186.201,256.91 185.368,255.91 185,254.5C 184.058,251.729 183.892,249.062 184.5,246.5C 185.496,246.414 186.329,246.748 187,247.5C 187.608,249.066 188.442,250.4 189.5,251.5C 189.577,252.75 190.244,253.583 191.5,254C 190.483,255.049 190.316,256.216 191,257.5C 192.333,259.5 193.667,261.5 195,263.5C 196.886,266.242 199.386,267.909 202.5,268.5C 202.238,269.978 202.571,271.311 203.5,272.5C 204.814,273.313 205.981,274.313 207,275.5C 214.048,294.216 226.881,307.382 245.5,315C 262.932,321.118 280.432,323.284 298,321.5C 313.53,317.409 329.03,313.243 344.5,309C 348.204,306.148 352.204,303.815 356.5,302C 361.454,297.71 366.121,293.21 370.5,288.5C 374.77,280.256 377.104,271.422 377.5,262C 376.481,257.528 376.481,253.028 377.5,248.5C 377.518,244.546 376.851,240.712 375.5,237C 376.425,231.884 376.758,226.717 376.5,221.5C 376.5,220.833 376.833,220.5 377.5,220.5 Z"/></g>
<g><path style="opacity:1" fill="#ebc42d" d="M 374.5,247.5 C 378.37,274.925 367.703,294.425 342.5,306C 330.729,309.734 318.896,313.234 307,316.5C 306.439,315.978 305.772,315.645 305,315.5C 288.158,318.65 271.325,318.817 254.5,316C 242.134,312.406 231.634,305.906 223,296.5C 214.29,282.406 206.123,268.072 198.5,253.5C 201.986,252.829 204.653,253.829 206.5,256.5C 208.048,263.236 210.548,269.902 214,276.5C 218.958,285.226 224.624,293.559 231,301.5C 251.364,314.968 273.197,319.135 296.5,314C 305.785,312.039 315.119,310.039 324.5,308C 330.945,305.221 337.611,303.054 344.5,301.5C 344.285,299.821 344.952,298.821 346.5,298.5C 359.332,293.83 367.499,284.83 371,271.5C 372.599,263.428 373.766,255.428 374.5,247.5 Z"/></g>
<g><path style="opacity:1" fill="#f9dc4f" d="M 228.5,267.5 C 231.015,267.769 233.015,268.769 234.5,270.5C 232.488,269.986 230.488,269.82 228.5,270C 231.442,271.925 234.442,273.759 237.5,275.5C 238.251,276.376 238.751,277.376 239,278.5C 239.333,278.167 239.667,277.833 240,277.5C 243.094,277.793 244.594,279.459 244.5,282.5C 249.322,281.935 253.822,282.601 258,284.5C 258.308,283.692 258.808,283.025 259.5,282.5C 264.935,286.467 270.769,289.467 277,291.5C 286.607,291.478 296.274,291.478 306,291.5C 309.47,289.763 312.804,287.763 316,285.5C 316.333,286.167 316.667,286.833 317,287.5C 318.724,285.604 320.557,283.938 322.5,282.5C 323.75,282.577 324.583,283.244 325,284.5C 327.547,282.796 329.047,280.463 329.5,277.5C 331.661,277.509 332.994,278.176 333.5,279.5C 334.416,279.457 335.083,279.124 335.5,278.5C 336.766,277.91 338.099,277.41 339.5,277C 338.091,274.391 338.758,272.558 341.5,271.5C 341.261,273.467 341.594,275.301 342.5,277C 339.945,280.382 337.611,283.882 335.5,287.5C 314.402,298.519 292.069,302.019 268.5,298C 259.603,295.047 250.269,292.047 240.5,289C 236.862,284.859 232.528,281.692 227.5,279.5C 223.105,276.223 219.771,272.057 217.5,267C 220.163,267.143 222.829,267.643 225.5,268.5C 226.726,268.48 227.726,268.147 228.5,267.5 Z"/></g>
<g><path style="opacity:1" fill="#f2cf3b" d="M 215.5,272.5 C 221.64,280.805 228.307,288.638 235.5,296C 250.07,306.255 265.903,309.422 283,305.5C 290.793,306.672 298.627,306.506 306.5,305C 319.669,302.887 331.669,298.387 342.5,291.5C 343.117,291.611 343.617,291.944 344,292.5C 345.743,290.229 347.91,288.563 350.5,287.5C 350.369,288.376 350.702,289.043 351.5,289.5C 352.842,287.995 354.508,287.328 356.5,287.5C 351.576,290.975 346.576,294.475 341.5,298C 327.362,303.326 312.862,307.159 298,309.5C 295.589,308.861 293.089,308.527 290.5,308.5C 283.681,309.65 276.848,310.65 270,311.5C 263.075,310.991 256.241,309.824 249.5,308C 243.927,304.479 238.26,301.145 232.5,298C 226.637,291.104 221.137,283.937 216,276.5C 215.51,275.207 215.343,273.873 215.5,272.5 Z"/></g>
<g><path style="opacity:1" fill="#e7c755" d="M 253.5,268.5 C 251.192,271.905 247.859,273.238 243.5,272.5C 241.048,272.461 239.048,271.794 237.5,270.5C 243.023,270.931 248.356,270.264 253.5,268.5 Z"/></g>
<g><path style="opacity:1" fill="#d3a64d" d="M 226.5,264.5 C 227.833,264.5 228.5,265.167 228.5,266.5C 227.167,266.5 226.5,265.833 226.5,264.5 Z"/></g>
<g><path style="opacity:1" fill="#4b4427" d="M 253.5,262.5 C 251.651,263.593 249.984,264.926 248.5,266.5C 244.154,266.666 239.821,266.499 235.5,266C 232.734,264.629 230.401,262.796 228.5,260.5C 230.048,260.179 230.715,259.179 230.5,257.5C 238.491,258.513 246.491,258.679 254.5,258C 253.687,259.314 252.687,260.481 251.5,261.5C 251.957,262.298 252.624,262.631 253.5,262.5 Z"/></g>
<g><path style="opacity:1" fill="#dfb747" d="M 220.5,258.5 C 222.587,259.585 223.92,261.251 224.5,263.5C 222.469,262.461 221.136,260.795 220.5,258.5 Z"/></g>
<g><path style="opacity:1" fill="#343221" d="M 258.5,256.5 C 257.833,257.833 257.167,259.167 256.5,260.5C 255.222,260.782 254.222,261.449 253.5,262.5C 252.624,262.631 251.957,262.298 251.5,261.5C 252.687,260.481 253.687,259.314 254.5,258C 246.491,258.679 238.491,258.513 230.5,257.5C 230.715,259.179 230.048,260.179 228.5,260.5C 227.5,260.167 226.833,259.5 226.5,258.5C 228.048,258.179 228.715,257.179 228.5,255.5C 233.03,255.403 237.53,255.736 242,256.5C 247.107,255.179 252.274,254.179 257.5,253.5C 257.263,254.791 257.596,255.791 258.5,256.5 Z"/></g>
<g><path style="opacity:1" fill="#674b2f" d="M 222.5,251.5 C 223.272,252.694 224.272,253.694 225.5,254.5C 225.557,255.609 225.89,256.609 226.5,257.5C 224.5,256.833 223.167,255.5 222.5,253.5C 222.5,252.833 222.5,252.167 222.5,251.5 Z"/></g>
<g><path style="opacity:1" fill="#29291f" d="M 260.5,253.5 C 259.833,254.5 259.167,255.5 258.5,256.5C 257.596,255.791 257.263,254.791 257.5,253.5C 252.274,254.179 247.107,255.179 242,256.5C 237.53,255.736 233.03,255.403 228.5,255.5C 228.715,257.179 228.048,258.179 226.5,258.5C 226.5,258.167 226.5,257.833 226.5,257.5C 225.89,256.609 225.557,255.609 225.5,254.5C 226.659,253.544 227.826,252.544 229,251.5C 233.093,253.443 237.426,254.776 242,255.5C 246.723,254.32 251.389,252.986 256,251.5C 257.607,252.074 259.107,252.74 260.5,253.5 Z"/></g>
<g><path style="opacity:1" fill="#efca34" d="M 206.5,252.5 C 207.167,252.833 207.833,253.167 208.5,253.5C 208.984,259.809 210.651,265.809 213.5,271.5C 213.957,272.298 214.624,272.631 215.5,272.5C 215.343,273.873 215.51,275.207 216,276.5C 221.137,283.937 226.637,291.104 232.5,298C 238.26,301.145 243.927,304.479 249.5,308C 256.241,309.824 263.075,310.991 270,311.5C 276.848,310.65 283.681,309.65 290.5,308.5C 293.089,308.527 295.589,308.861 298,309.5C 312.862,307.159 327.362,303.326 341.5,298C 346.576,294.475 351.576,290.975 356.5,287.5C 356.833,287.5 357.167,287.5 357.5,287.5C 357.372,289.09 356.705,290.423 355.5,291.5C 352.25,293.612 349.25,295.945 346.5,298.5C 344.952,298.821 344.285,299.821 344.5,301.5C 337.611,303.054 330.945,305.221 324.5,308C 315.119,310.039 305.785,312.039 296.5,314C 273.197,319.135 251.364,314.968 231,301.5C 224.624,293.559 218.958,285.226 214,276.5C 210.548,269.902 208.048,263.236 206.5,256.5C 206.5,255.167 206.5,253.833 206.5,252.5 Z"/></g>
<g><path style="opacity:1" fill="#fde361" d="M 295.5,247.5 C 299.169,251.116 303.836,254.449 309.5,257.5C 313.203,260.867 316.536,264.534 319.5,268.5C 318.833,269.5 318.167,270.5 317.5,271.5C 318.025,272.192 318.692,272.692 319.5,273C 316.833,274.333 316.833,275.667 319.5,277C 314.843,281.161 309.51,283.995 303.5,285.5C 299.777,285.801 296.277,285.468 293,284.5C 290.793,285.03 288.793,286.03 287,287.5C 286.196,286.196 285.029,285.529 283.5,285.5C 279.599,286.533 275.932,286.033 272.5,284C 270.787,282.622 269.453,280.955 268.5,279C 275.75,271.418 282.25,263.251 288,254.5C 289.011,253.663 290.178,253.33 291.5,253.5C 291.5,252.5 291.5,251.5 291.5,250.5C 293.619,250.532 294.952,249.532 295.5,247.5 Z"/></g>
<g><path style="opacity:0.082" fill="#eaddd1" d="M 125.5,316.5 C 126.833,316.833 128.167,317.167 129.5,317.5C 131.629,318.203 133.629,319.203 135.5,320.5C 131.433,320.794 128.1,319.46 125.5,316.5 Z"/></g>
<g><path style="opacity:0.545" fill="#c6a78b" d="M 144.5,321.5 C 145.833,321.5 147.167,321.5 148.5,321.5C 149.167,322.167 149.833,322.833 150.5,323.5C 148.102,323.741 146.102,323.074 144.5,321.5 Z"/></g>
<g><path style="opacity:0.839" fill="#a7784c" d="M 148.5,321.5 C 150.898,321.259 152.898,321.926 154.5,323.5C 153.167,323.5 151.833,323.5 150.5,323.5C 149.833,322.833 149.167,322.167 148.5,321.5 Z"/></g>
<g><path style="opacity:1" fill="#905521" d="M 143.5,319.5 C 158.909,322.561 175.243,323.895 192.5,323.5C 192.5,323.833 192.5,324.167 192.5,324.5C 179.815,324.655 167.149,324.322 154.5,323.5C 152.898,321.926 150.898,321.259 148.5,321.5C 147.167,321.5 145.833,321.5 144.5,321.5C 144.167,321.5 143.833,321.5 143.5,321.5C 143.5,320.833 143.5,320.167 143.5,319.5 Z"/></g>
<g><path style="opacity:0.11" fill="#eaded4" d="M 135.5,320.5 C 138.167,320.833 140.833,321.167 143.5,321.5C 143.833,321.5 144.167,321.5 144.5,321.5C 146.102,323.074 148.102,323.741 150.5,323.5C 151.833,323.5 153.167,323.5 154.5,323.5C 154.5,323.833 154.5,324.167 154.5,324.5C 148.321,324.783 142.321,323.95 136.5,322C 135.944,321.617 135.611,321.117 135.5,320.5 Z"/></g>
<g><path style="opacity:0.714" fill="#b48d6b" d="M 154.5,324.5 C 154.5,324.167 154.5,323.833 154.5,323.5C 167.149,324.322 179.815,324.655 192.5,324.5C 192.5,324.833 192.5,325.167 192.5,325.5C 179.811,325.708 167.144,325.374 154.5,324.5 Z"/></g>
<g><path style="opacity:1" fill="#ce9f17" d="M 384.5,285.5 C 384.5,286.833 384.5,288.167 384.5,289.5C 384.5,290.5 384.5,291.5 384.5,292.5C 382.787,293.635 382.12,295.302 382.5,297.5C 381.258,301.655 379.258,305.322 376.5,308.5C 376.657,307.127 376.49,305.793 376,304.5C 370.274,309.615 364.441,314.615 358.5,319.5C 348.611,324.215 338.278,328.715 327.5,333C 317.123,334.721 306.789,336.721 296.5,339C 288.833,339.667 281.167,339.667 273.5,339C 257.558,339.191 242.891,335.191 229.5,327C 226.529,326.206 223.529,325.539 220.5,325C 222.335,324.072 222.668,322.906 221.5,321.5C 216.17,318.335 212.003,314.002 209,308.5C 208.501,303.177 208.334,297.844 208.5,292.5C 209.434,293.568 209.768,294.901 209.5,296.5C 209.421,299.271 209.921,301.937 211,304.5C 213.285,306.907 215.451,309.407 217.5,312C 218.448,312.483 219.448,312.649 220.5,312.5C 222.877,316.067 225.544,319.567 228.5,323C 240.385,327.305 252.385,331.305 264.5,335C 278.515,336.719 292.348,336.219 306,333.5C 314.114,331.193 322.614,329.526 331.5,328.5C 332.442,328.608 333.275,328.941 334,329.5C 335.36,327.895 336.86,326.395 338.5,325C 346.528,320.654 354.528,316.321 362.5,312C 371.749,304.076 379.082,295.243 384.5,285.5 Z"/></g>
<g><path style="opacity:1" fill="#c49212" d="M 203.5,285.5 C 204.167,285.5 204.833,285.5 205.5,285.5C 206.674,286.514 207.34,287.847 207.5,289.5C 207.5,290.167 207.5,290.833 207.5,291.5C 207.169,299.196 207.503,306.862 208.5,314.5C 212.969,320.127 216.803,326.127 220,332.5C 225.746,334.938 231.746,336.604 238,337.5C 239.326,337.755 240.326,338.422 241,339.5C 244.128,338.058 246.962,338.558 249.5,341C 255.923,341.816 262.09,343.316 268,345.5C 277.756,344.68 287.59,344.18 297.5,344C 310.544,341.624 323.544,338.79 336.5,335.5C 336.5,334.5 336.5,333.5 336.5,332.5C 338.527,332.662 340.527,332.495 342.5,332C 345.958,330.214 349.624,328.881 353.5,328C 355.53,325.827 357.863,324.493 360.5,324C 358.173,326.142 356.507,328.642 355.5,331.5C 353.973,331.427 352.973,332.094 352.5,333.5C 350.847,333.66 349.514,334.326 348.5,335.5C 346.244,338.405 343.244,340.072 339.5,340.5C 339.217,339.711 338.717,339.044 338,338.5C 330.912,340.973 323.912,343.64 317,346.5C 316.667,346.167 316.333,345.833 316,345.5C 314.092,347.907 312.092,347.907 310,345.5C 308.311,346.858 306.978,348.525 306,350.5C 301.297,349.597 296.631,349.93 292,351.5C 287.301,348.695 282.967,349.028 279,352.5C 273.372,351.503 267.706,350.503 262,349.5C 260.578,350.205 259.245,350.539 258,350.5C 248.281,347.003 238.447,345.003 228.5,344.5C 228.5,343.5 228.5,342.5 228.5,341.5C 226.323,341.414 224.323,340.747 222.5,339.5C 219.651,336.487 216.485,333.82 213,331.5C 210.931,325.699 208.598,320.032 206,314.5C 205.749,309.499 205.916,304.499 206.5,299.5C 206.813,295.958 206.479,292.625 205.5,289.5C 204.833,288.167 204.167,286.833 203.5,285.5 Z"/></g>
<g><path style="opacity:0.213" fill="#e7dbcd" d="M 154.5,324.5 C 167.144,325.374 179.811,325.708 192.5,325.5C 192.5,326.833 193.167,327.5 194.5,327.5C 195.904,329.255 196.904,331.255 197.5,333.5C 195.236,331.903 193.236,329.903 191.5,327.5C 179.514,326.667 167.514,326.167 155.5,326C 154.944,325.617 154.611,325.117 154.5,324.5 Z"/></g>
<g><path style="opacity:1" fill="#a97a13" d="M 205.5,289.5 C 206.479,292.625 206.813,295.958 206.5,299.5C 205.525,302.311 204.858,305.311 204.5,308.5C 201.52,315.86 200.854,323.527 202.5,331.5C 202.058,332.739 201.391,333.739 200.5,334.5C 199.609,333.89 198.609,333.557 197.5,333.5C 196.904,331.255 195.904,329.255 194.5,327.5C 194.5,327.167 194.5,326.833 194.5,326.5C 196.257,325.916 197.59,324.749 198.5,323C 198.962,320.323 199.796,317.823 201,315.5C 201.498,312.518 201.665,309.518 201.5,306.5C 202.924,304.485 203.59,302.152 203.5,299.5C 205.202,297.2 205.868,294.533 205.5,291.5C 205.5,290.833 205.5,290.167 205.5,289.5 Z"/></g>
<g><path style="opacity:0.686" fill="#be9e64" d="M 192.5,325.5 C 193.492,325.328 194.158,325.662 194.5,326.5C 194.5,326.833 194.5,327.167 194.5,327.5C 193.167,327.5 192.5,326.833 192.5,325.5 Z"/></g>
<g><path style="opacity:0.376" fill="#efe1bb" d="M 382.5,297.5 C 382.833,297.5 383.167,297.5 383.5,297.5C 378.344,313.004 368.677,325.004 354.5,333.5C 354.833,332.833 355.167,332.167 355.5,331.5C 363.913,325.089 370.913,317.422 376.5,308.5C 379.258,305.322 381.258,301.655 382.5,297.5 Z"/></g>
<g><path style="opacity:1" fill="#d3a519" d="M 386.5,219.5 C 387.167,220.5 387.833,221.5 388.5,222.5C 388.5,224.5 388.5,226.5 388.5,228.5C 388.5,242.5 388.5,256.5 388.5,270.5C 388.5,271.167 388.5,271.833 388.5,272.5C 386.989,275.544 386.322,278.878 386.5,282.5C 386.5,282.833 386.5,283.167 386.5,283.5C 385.833,284.167 385.167,284.833 384.5,285.5C 379.082,295.243 371.749,304.076 362.5,312C 354.528,316.321 346.528,320.654 338.5,325C 336.86,326.395 335.36,327.895 334,329.5C 333.275,328.941 332.442,328.608 331.5,328.5C 322.614,329.526 314.114,331.193 306,333.5C 292.348,336.219 278.515,336.719 264.5,335C 252.385,331.305 240.385,327.305 228.5,323C 225.544,319.567 222.877,316.067 220.5,312.5C 219.448,312.649 218.448,312.483 217.5,312C 215.451,309.407 213.285,306.907 211,304.5C 209.921,301.937 209.421,299.271 209.5,296.5C 210.793,297.842 211.626,299.509 212,301.5C 230.506,320.011 252.839,330.678 279,333.5C 301.37,332.122 323.204,327.289 344.5,319C 368.483,308.67 382.316,290.503 386,264.5C 387.39,249.494 387.557,234.494 386.5,219.5 Z"/></g>
<g><path style="opacity:0.541" fill="#ddc179" d="M 355.5,331.5 C 355.167,332.167 354.833,332.833 354.5,333.5C 353.833,333.5 353.167,333.5 352.5,333.5C 352.973,332.094 353.973,331.427 355.5,331.5 Z"/></g>
<g><path style="opacity:0.216" fill="#eaddc0" d="M 197.5,333.5 C 198.609,333.557 199.609,333.89 200.5,334.5C 201.925,335.922 202.925,337.589 203.5,339.5C 200.833,338.167 198.833,336.167 197.5,333.5 Z"/></g>
<g><path style="opacity:1" fill="#c19019" d="M 206.5,299.5 C 205.916,304.499 205.749,309.499 206,314.5C 208.598,320.032 210.931,325.699 213,331.5C 216.485,333.82 219.651,336.487 222.5,339.5C 224.323,340.747 226.323,341.414 228.5,341.5C 228.5,342.5 228.5,343.5 228.5,344.5C 238.447,345.003 248.281,347.003 258,350.5C 259.245,350.539 260.578,350.205 262,349.5C 267.706,350.503 273.372,351.503 279,352.5C 282.967,349.028 287.301,348.695 292,351.5C 296.631,349.93 301.297,349.597 306,350.5C 306.978,348.525 308.311,346.858 310,345.5C 312.092,347.907 314.092,347.907 316,345.5C 316.333,345.833 316.667,346.167 317,346.5C 323.912,343.64 330.912,340.973 338,338.5C 338.717,339.044 339.217,339.711 339.5,340.5C 334.282,344.034 328.615,346.701 322.5,348.5C 320.302,348.12 318.635,348.787 317.5,350.5C 317.167,350.5 316.833,350.5 316.5,350.5C 314.102,350.259 312.102,350.926 310.5,352.5C 309.833,352.5 309.167,352.5 308.5,352.5C 304.96,352.753 301.627,353.419 298.5,354.5C 297.5,354.5 296.5,354.5 295.5,354.5C 291.96,354.753 288.627,355.419 285.5,356.5C 272.829,356.667 260.162,356.5 247.5,356C 246.099,355.59 244.766,355.09 243.5,354.5C 238.768,352.739 233.768,351.739 228.5,351.5C 225.67,350.265 222.67,349.265 219.5,348.5C 219.167,347.5 218.5,346.833 217.5,346.5C 216.829,345.153 216.829,343.986 217.5,343C 210.054,336.13 205.888,327.63 205,317.5C 204.502,314.518 204.335,311.518 204.5,308.5C 204.858,305.311 205.525,302.311 206.5,299.5 Z"/></g>
<g><path style="opacity:0.737" fill="#d8b865" d="M 352.5,333.5 C 352.167,334.167 351.833,334.833 351.5,335.5C 350.5,335.5 349.5,335.5 348.5,335.5C 349.514,334.326 350.847,333.66 352.5,333.5 Z"/></g>
<g><path style="opacity:0.039" fill="#f6eedb" d="M 352.5,333.5 C 353.167,333.5 353.833,333.5 354.5,333.5C 354.027,334.906 353.027,335.573 351.5,335.5C 351.833,334.833 352.167,334.167 352.5,333.5 Z"/></g>
<g><path style="opacity:0.094" fill="#f2e6ca" d="M 348.5,335.5 C 349.5,335.5 350.5,335.5 351.5,335.5C 342.446,342.178 332.446,347.178 321.5,350.5C 321.833,349.833 322.167,349.167 322.5,348.5C 328.615,346.701 334.282,344.034 339.5,340.5C 343.244,340.072 346.244,338.405 348.5,335.5 Z"/></g>
<g><path style="opacity:0.114" fill="#f4ecdc" d="M 203.5,339.5 C 205.777,340.449 207.777,341.782 209.5,343.5C 206.663,343.316 204.663,341.982 203.5,339.5 Z"/></g>
<g><path style="opacity:0.643" fill="#dec58a" d="M 216.5,346.5 C 216.833,346.5 217.167,346.5 217.5,346.5C 218.5,346.833 219.167,347.5 219.5,348.5C 217.973,348.573 216.973,347.906 216.5,346.5 Z"/></g>
<g><path style="opacity:0.259" fill="#e5ce98" d="M 322.5,348.5 C 322.167,349.167 321.833,349.833 321.5,350.5C 320.167,350.5 318.833,350.5 317.5,350.5C 318.635,348.787 320.302,348.12 322.5,348.5 Z"/></g>
<g><path style="opacity:0.243" fill="#f0e3c6" d="M 209.5,343.5 C 211.98,344.242 214.313,345.242 216.5,346.5C 216.973,347.906 217.973,348.573 219.5,348.5C 222.67,349.265 225.67,350.265 228.5,351.5C 230.834,352.124 233.167,352.957 235.5,354C 238.146,354.497 240.813,354.664 243.5,354.5C 244.766,355.09 246.099,355.59 247.5,356C 260.162,356.5 272.829,356.667 285.5,356.5C 287.833,356.5 290.167,356.5 292.5,356.5C 266.53,361.092 241.197,358.592 216.5,349C 213.931,347.241 211.597,345.407 209.5,343.5 Z"/></g>
<g><path style="opacity:0.431" fill="#e0c687" d="M 316.5,350.5 C 315.833,351.167 315.167,351.833 314.5,352.5C 313.167,352.5 311.833,352.5 310.5,352.5C 312.102,350.926 314.102,350.259 316.5,350.5 Z"/></g>
<g><path style="opacity:0.141" fill="#f5ecd8" d="M 316.5,350.5 C 316.833,350.5 317.167,350.5 317.5,350.5C 318.833,350.5 320.167,350.5 321.5,350.5C 319.401,351.612 317.067,352.279 314.5,352.5C 315.167,351.833 315.833,351.167 316.5,350.5 Z"/></g>
<g><path style="opacity:0.886" fill="#cfa950" d="M 228.5,351.5 C 233.768,351.739 238.768,352.739 243.5,354.5C 240.813,354.664 238.146,354.497 235.5,354C 233.167,352.957 230.834,352.124 228.5,351.5 Z"/></g>
<g><path style="opacity:0.353" fill="#e1c98f" d="M 308.5,352.5 C 307.833,353.167 307.167,353.833 306.5,354.5C 303.833,354.5 301.167,354.5 298.5,354.5C 301.627,353.419 304.96,352.753 308.5,352.5 Z"/></g>
<g><path style="opacity:0.027" fill="#f6efde" d="M 308.5,352.5 C 309.167,352.5 309.833,352.5 310.5,352.5C 311.833,352.5 313.167,352.5 314.5,352.5C 312.095,353.768 309.428,354.435 306.5,354.5C 307.167,353.833 307.833,353.167 308.5,352.5 Z"/></g>
<g><path style="opacity:0.353" fill="#e2ca92" d="M 295.5,354.5 C 294.833,355.167 294.167,355.833 293.5,356.5C 293.167,356.5 292.833,356.5 292.5,356.5C 290.167,356.5 287.833,356.5 285.5,356.5C 288.627,355.419 291.96,354.753 295.5,354.5 Z"/></g>
<g><path style="opacity:0.051" fill="#f6efde" d="M 295.5,354.5 C 296.5,354.5 297.5,354.5 298.5,354.5C 301.167,354.5 303.833,354.5 306.5,354.5C 302.409,355.895 298.076,356.562 293.5,356.5C 294.167,355.833 294.833,355.167 295.5,354.5 Z"/></g>
</svg>
